<svg width="17" height="17" viewBox="0 0 17 17" fill="none" xmlns="http://www.w3.org/2000/svg">
<g clip-path="url(#clip0_1_209)">
<path d="M8.48575 12.2029L4.04532 10.0349L8.48172 16.0049L9.14822 15.1079V11.8784L8.48575 12.2029Z" fill="#15BFFD"/>
<path d="M8.48172 0.00488281L3.38626 9.14783H13.5773L8.48172 0.00488281Z" fill="#15BFFD"/>
<path d="M13.5773 9.16138L8.48172 0.00488281V9.16138H13.5773Z" fill="#1286B0"/>
<path d="M6.94022 5.08289H7.94022V6.08289H6.94022V5.08289Z" fill="#F7F8FA"/>
<path d="M8.48172 6.66492L8.4617 6.6554L3.38675 9.1554H3.39127L8.46622 11.6554L8.48624 11.6459L9.14822 11.3219V6.99133L8.48172 6.66492Z" fill="#147EA5"/>
<path d="M6.94022 3.19141H7.94022V4.19141H6.94022V3.19141Z" fill="#F7F8FA"/>
<path d="M8.48575 12.2029L8.48172 16.0049L12.9213 10.0309L8.48575 12.2029Z" fill="#1286B0"/>
<path d="M13.5678 9.1554L8.48172 6.66492L8.4617 6.6554L8.46622 11.6554L8.48624 11.6459L13.5723 9.1554H13.5678Z" fill="#0E526A"/>
</g>
<defs>
<clipPath id="clip0_1_209">
<rect width="16" height="16" fill="white" transform="translate(0.480011 0.00488281)"/>
</clipPath>
</defs>
</svg>
